<?xml version="1.0" encoding="UTF-8" standalone="no"?>
<svg
   xmlns:dc="http://purl.org/dc/elements/1.1/"
   xmlns:cc="http://creativecommons.org/ns#"
   xmlns:rdf="http://www.w3.org/1999/02/22-rdf-syntax-ns#"
   xmlns:svg="http://www.w3.org/2000/svg"
   xmlns="http://www.w3.org/2000/svg"
   xmlns:xlink="http://www.w3.org/1999/xlink"
   xmlns:sodipodi="http://sodipodi.sourceforge.net/DTD/sodipodi-0.dtd"
   xmlns:inkscape="http://www.inkscape.org/namespaces/inkscape"
   width="128"
   height="128"
   viewBox="0 0 33.866666 33.866666"
   version="1.1"
   id="svg5"
   inkscape:version="1.0.2 (e86c870879, 2021-01-15, custom)"
   sodipodi:docname="TimeSeriesAnnotation.svg"
   inkscape:export-filename="TimeSeriesAnnotation.png"
   inkscape:export-xdpi="96"
   inkscape:export-ydpi="96">
  <metadata
     id="metadata17">
    <rdf:RDF>
      <cc:Work
         rdf:about="">
        <dc:format>image/svg+xml</dc:format>
        <dc:type
           rdf:resource="http://purl.org/dc/dcmitype/StillImage" />
      </cc:Work>
    </rdf:RDF>
  </metadata>
  <sodipodi:namedview
     id="namedview7"
     pagecolor="#ffffff"
     bordercolor="#000000"
     borderopacity="0.25"
     inkscape:showpageshadow="2"
     inkscape:pageopacity="0.0"
     inkscape:pagecheckerboard="true"
     inkscape:deskcolor="#d1d1d1"
     inkscape:document-units="mm"
     showgrid="false"
     inkscape:zoom="3.5705387"
     inkscape:cx="116.00521"
     inkscape:cy="22.751743"
     inkscape:window-width="2485"
     inkscape:window-height="1417"
     inkscape:window-x="1987"
     inkscape:window-y="-8"
     inkscape:window-maximized="1"
     inkscape:current-layer="layer2"
     inkscape:document-rotation="0" />
  <defs
     id="defs2">
    <linearGradient
       inkscape:collect="always"
       id="linearGradient11613">
      <stop
         style="stop-color:#000000;stop-opacity:1;"
         offset="0"
         id="stop11609" />
      <stop
         style="stop-color:#808080;stop-opacity:1;"
         offset="1"
         id="stop11611" />
    </linearGradient>
    <linearGradient
       inkscape:collect="always"
       xlink:href="#linearGradient11613"
       id="linearGradient10749"
       x1="16.969311"
       y1="33.827469"
       x2="16.784058"
       y2="-0.074101798"
       gradientUnits="userSpaceOnUse"
       gradientTransform="matrix(0.95772111,0,0,0.95772111,-1.7511389,-3.3632732)" />
    <linearGradient
       inkscape:collect="always"
       xlink:href="#linearGradient11613"
       id="linearGradient1029"
       gradientUnits="userSpaceOnUse"
       gradientTransform="matrix(0.95772111,0,0,0.95772111,0.0184122,-0.5861118)"
       x1="16.969311"
       y1="33.827469"
       x2="16.784058"
       y2="-0.074101798" />
    <linearGradient
       inkscape:collect="always"
       xlink:href="#linearGradient11613"
       id="linearGradient1063"
       gradientUnits="userSpaceOnUse"
       gradientTransform="matrix(0.95772111,0,0,0.95772111,1.8814114,2.4625154)"
       x1="16.969311"
       y1="33.827469"
       x2="16.784058"
       y2="-0.074101798" />
  </defs>
  <g
     inkscape:label="Layer 1"
     inkscape:groupmode="layer"
     id="layer1"
     style="display:none">
    <rect
       style="fill:#264bbe;fill-opacity:1;stroke-width:0.264926"
       id="rect111"
       width="33.866669"
       height="33.866665"
       x="3.6429193e-15"
       y="2.5239848e-15"
       ry="5.4522185" />
  </g>
  <g
     inkscape:groupmode="layer"
     id="layer2"
     inkscape:label="US">
    <path
       id="path10718"
       style="fill:#eeeeee;fill-opacity:1;stroke:none;stroke-width:0.268449;stroke-opacity:1"
       d="m 10.095549,0.10907946 c 1.187493,0.70467957 2.542283,1.07645264 3.922443,1.07645264 1.462612,0 2.894973,-0.41748677 4.129591,-1.20361864 L 31.379728,21.291612 c -5.291719,3.310938 -11.266308,5.015016 -17.361736,5.015016 -5.7506935,0 -11.4001027,-1.516889 -16.5011442,-4.461087 z"
       sodipodi:nodetypes="csccscc" />
    <path
       id="path9871"
       style="fill:url(#linearGradient10749);fill-opacity:1;stroke:none;stroke-width:0.242079;stroke-opacity:1"
       d="m 10.523121,1.67772 c 1.070844,0.6354586 2.292553,0.9707124 3.537139,0.9707124 1.318939,0 2.610599,-0.376477 3.723939,-1.0853868 L 29.716545,20.779483 c -4.77191,2.985704 -10.159614,4.522388 -15.656285,4.522388 -5.1858005,0 -10.2802658,-1.367883 -14.88022987,-4.022872 z"
       sodipodi:nodetypes="csccscc" />
    <path
       id="path10718-0"
       style="fill:#eeeeee;fill-opacity:1;stroke:none;stroke-width:0.268449;stroke-opacity:1"
       d="m 11.8651,2.8862408 c 1.187493,0.7046796 2.542283,1.0764527 3.922443,1.0764527 1.462612,0 2.894973,-0.4174868 4.129591,-1.2036187 L 33.149279,24.068774 c -5.291719,3.310938 -11.266308,5.015016 -17.361736,5.015016 -5.750694,0 -11.4001026,-1.516889 -16.50114413,-4.461087 z"
       sodipodi:nodetypes="csccscc" />
    <path
       id="path9871-2"
       style="fill:url(#linearGradient1029);fill-opacity:1;stroke:none;stroke-width:0.242079;stroke-opacity:1"
       d="m 12.292672,4.4548814 c 1.070844,0.6354586 2.292553,0.9707124 3.537139,0.9707124 1.318939,0 2.610599,-0.376477 3.723939,-1.0853868 l 11.932346,19.216438 c -4.77191,2.985704 -10.159614,4.522388 -15.656285,4.522388 -5.185801,0 -10.2802657,-1.367883 -14.88022977,-4.022872 z"
       sodipodi:nodetypes="csccscc" />
    <path
       id="path10718-0-6"
       style="fill:#eeeeee;fill-opacity:1;stroke:none;stroke-width:0.268449;stroke-opacity:1"
       d="m 13.728099,5.934868 c 1.187493,0.7046796 2.542283,1.0764532 3.922443,1.0764532 1.462612,0 2.894973,-0.4174873 4.129591,-1.2036192 l 13.232145,21.3097 c -5.291719,3.310938 -11.266308,5.015016 -17.361736,5.015016 -5.750694,0 -11.4001024,-1.516889 -16.5011439,-4.461087 z"
       sodipodi:nodetypes="csccscc" />
    <path
       id="path9871-2-4"
       style="fill:url(#linearGradient1063);fill-opacity:1;stroke:none;stroke-width:0.242079;stroke-opacity:1"
       d="m 14.155671,7.5035082 c 1.070844,0.635459 2.292553,0.970713 3.537139,0.970713 1.318939,0 2.610599,-0.376477 3.723939,-1.085387 L 33.349095,26.605273 c -4.77191,2.985704 -10.159614,4.522388 -15.656285,4.522388 -5.185801,0 -10.2802655,-1.367883 -14.8802296,-4.022872 z"
       sodipodi:nodetypes="csccscc" />
  </g>
  <g
     inkscape:groupmode="layer"
     id="layer3"
     inkscape:label="Foreground">
    <g
       style="fill:#009ca6;fill-opacity:1"
       id="g927"
       transform="matrix(0.02552593,0,0,0.02552593,11.506463,24.803417)">
      <path
         d="m 200,-200 h 57 l 391,-391 -57,-57 -391,391 z m -80,80 v -170 l 528,-527 q 12,-11 26.5,-17 14.5,-6 30.5,-6 16,0 31,6 15,6 26,18 l 55,56 q 12,11 17.5,26 5.5,15 5.5,30 0,16 -5.5,30.5 Q 829,-659 817,-647 l -527,527 z m 640,-584 -56,-56 z m -141,85 -28,-29 57,57 z"
         id="path916"
         style="fill:#009ca6;fill-opacity:1" />
    </g>
    <path
       style="fill:#000000;fill-opacity:1;stroke:none;stroke-width:0.435602px;stroke-linecap:butt;stroke-linejoin:miter;stroke-opacity:1"
       d="M 27.461754,7.266397 29.043482,8.8481255 18.193379,19.69823 H 16.61165 v -1.581729 z"
       id="path929" />
  </g>
</svg>
