<?xml version="1.0" encoding="UTF-8" standalone="no"?>
<svg
   xmlns:dc="http://purl.org/dc/elements/1.1/"
   xmlns:cc="http://creativecommons.org/ns#"
   xmlns:rdf="http://www.w3.org/1999/02/22-rdf-syntax-ns#"
   xmlns:svg="http://www.w3.org/2000/svg"
   xmlns="http://www.w3.org/2000/svg"
   xmlns:xlink="http://www.w3.org/1999/xlink"
   xmlns:sodipodi="http://sodipodi.sourceforge.net/DTD/sodipodi-0.dtd"
   xmlns:inkscape="http://www.inkscape.org/namespaces/inkscape"
   width="128"
   height="128"
   viewBox="0 0 33.866666 33.866666"
   version="1.1"
   id="svg5"
   inkscape:version="1.0.2 (e86c870879, 2021-01-15, custom)"
   sodipodi:docname="SceneCleaner.svg"
   inkscape:export-filename="E:\SlicerUltrasound\SceneCleaner\Resources\Icons\SceneCleaner.png"
   inkscape:export-xdpi="96"
   inkscape:export-ydpi="96">
  <metadata
     id="metadata17">
    <rdf:RDF>
      <cc:Work
         rdf:about="">
        <dc:format>image/svg+xml</dc:format>
        <dc:type
           rdf:resource="http://purl.org/dc/dcmitype/StillImage" />
      </cc:Work>
    </rdf:RDF>
  </metadata>
  <sodipodi:namedview
     id="namedview7"
     pagecolor="#ffffff"
     bordercolor="#000000"
     borderopacity="0.25"
     inkscape:showpageshadow="2"
     inkscape:pageopacity="0.0"
     inkscape:pagecheckerboard="true"
     inkscape:deskcolor="#d1d1d1"
     inkscape:document-units="mm"
     showgrid="false"
     inkscape:zoom="5.0495043"
     inkscape:cx="11.018407"
     inkscape:cy="31.867578"
     inkscape:window-width="2485"
     inkscape:window-height="1417"
     inkscape:window-x="1987"
     inkscape:window-y="-8"
     inkscape:window-maximized="1"
     inkscape:current-layer="svg5"
     inkscape:document-rotation="0" />
  <defs
     id="defs2">
    <linearGradient
       inkscape:collect="always"
       id="linearGradient11613">
      <stop
         style="stop-color:#000000;stop-opacity:1;"
         offset="0"
         id="stop11609" />
      <stop
         style="stop-color:#808080;stop-opacity:1;"
         offset="1"
         id="stop11611" />
    </linearGradient>
    <linearGradient
       inkscape:collect="always"
       xlink:href="#linearGradient11613"
       id="linearGradient10749"
       x1="16.969311"
       y1="33.827469"
       x2="16.784058"
       y2="-0.074101798"
       gradientUnits="userSpaceOnUse"
       gradientTransform="matrix(0.95772111,0,0,0.95772111,0.71512858,1.029641)" />
  </defs>
  <g
     inkscape:label="Layer 1"
     inkscape:groupmode="layer"
     id="layer1"
     style="display:none">
    <rect
       style="fill:#264bbe;fill-opacity:1;stroke-width:0.264926"
       id="rect111"
       width="33.866669"
       height="33.866665"
       x="3.6429193e-15"
       y="2.5239848e-15"
       ry="5.4522185" />
  </g>
  <g
     inkscape:groupmode="layer"
     id="layer2"
     inkscape:label="US"
     style="display:inline">
    <path
       id="path10718"
       style="fill:#eeeeee;fill-opacity:1;stroke:none;stroke-width:0.268449;stroke-opacity:1"
       d="m 12.561817,4.5019936 c 1.187493,0.7046796 2.542283,1.0764527 3.922443,1.0764527 1.462612,0 2.894973,-0.4174868 4.129591,-1.2036187 L 33.845996,25.684527 c -5.291719,3.310938 -11.266308,5.015016 -17.361736,5.015016 -5.750694,0 -11.4001032,-1.516889 -16.50114469,-4.461087 z"
       sodipodi:nodetypes="csccscc" />
    <path
       id="path9871"
       style="fill:url(#linearGradient10749);fill-opacity:1;stroke:none;stroke-width:0.242079;stroke-opacity:1"
       d="m 12.989389,6.0706342 c 1.070844,0.6354586 2.292553,0.9707124 3.537139,0.9707124 1.318939,0 2.610599,-0.376477 3.723939,-1.0853868 L 32.182813,25.172398 c -4.77191,2.985704 -10.159614,4.522388 -15.656285,4.522388 -5.185801,0 -10.2802663,-1.367883 -14.8802304,-4.022872 z"
       sodipodi:nodetypes="csccscc" />
  </g>
  <g
     inkscape:groupmode="layer"
     id="layer3"
     inkscape:label="Mask"
     style="display:inline" />
  <g
     id="g856"
     transform="matrix(1.7530661,0,0,1.6880018,-23.241724,-9.4182535)"
     inkscape:export-xdpi="96"
     inkscape:export-ydpi="96">
    <rect
       style="fill:#000000;fill-opacity:1;stroke:none;stroke-width:0.114401;stroke-dasharray:none;stroke-opacity:1"
       id="rect11673"
       width="8.3961573"
       height="5.1910601"
       x="22.004396"
       y="13.564516"
       ry="0"
       rx="0" />
    <g
       id="g8"
       transform="matrix(0.26458333,0,0,0.26458333,22.604758,-3.2797957)"
       style="fill:#009ca6;fill-opacity:1">
      <path
         d="M 22.664388,59.235655 H 20.397709 V 41.102221 c 0,-2.493347 -2.040011,-4.533359 -4.533358,-4.533359 h -4.533359 c -2.4933475,0 -4.5333585,2.040012 -4.5333585,4.533359 v 18.133434 h -2.26668 c -6.2560345,0 -11.333396,5.077362 -11.333396,11.333396 V 86.435806 H 33.997785 V 70.569051 c 0,-6.256034 -5.077362,-11.333396 -11.333397,-11.333396 z m 6.800038,22.666792 H 24.931068 V 75.10241 c 0,-1.246674 -1.020006,-2.266679 -2.26668,-2.266679 -1.246673,0 -2.266679,1.020005 -2.266679,2.266679 v 6.800037 H 15.864351 V 75.10241 c 0,-1.246674 -1.020006,-2.266679 -2.26668,-2.266679 -1.246673,0 -2.266679,1.020005 -2.266679,2.266679 v 6.800037 H 6.7976335 V 75.10241 c 0,-1.246674 -1.020006,-2.266679 -2.26668,-2.266679 -1.246673,0 -2.266679,1.020005 -2.266679,2.266679 v 6.800037 H -2.269084 V 70.569051 c 0,-3.74002 3.06001655,-6.800037 6.8000375,-6.800037 H 22.664388 c 3.740021,0 6.800038,3.060017 6.800038,6.800037 z"
         id="path6"
         style="fill:#009ca6;fill-opacity:1;stroke-width:2.26668" />
    </g>
  </g>
</svg>
